<svg xmlns="http://www.w3.org/2000/svg" width="1024" height="1024" viewBox="0 0 1024 1024">
<g>
<path d="M 638.05 569.02 C614.10,569.03 538.11,569.23 469.19,569.45 C366.01,569.78 343.79,569.62 343.37,568.53 C343.09,567.80 343.01,565.48 343.18,563.36 L 343.50 559.50 L 358.03 558.91 L 357.76 525.22 L 357.50 491.52 L 354.80 491.01 C352.15,490.51 352.24,490.34 360.06,482.00 C364.44,477.33 374.65,466.31 382.76,457.53 C390.87,448.74 401.08,437.72 405.46,433.03 L 413.42 424.50 L 458.46 424.00 L 503.50 423.50 L 504.10 412.00 L 528.90 412.00 L 530.26 424.00 L 536.50 424.00 C542.58,424.00 542.85,424.11 546.62,428.28 C558.70,441.60 599.55,489.49 599.82,490.64 C600.09,491.78 589.48,492.00 535.20,492.00 L 470.25 492.00 L 459.37 480.25 C453.39,473.79 448.26,468.27 447.97,468.00 C447.68,467.73 440.99,460.41 433.10,451.75 C425.21,443.09 418.53,436.00 418.26,436.00 C417.98,436.00 415.90,438.13 413.63,440.74 C411.36,443.34 403.42,452.03 396.00,460.04 C388.58,468.05 379.46,478.02 375.74,482.18 L 368.97 489.76 L 369.24 524.13 L 369.50 558.50 L 405.00 559.05 L 405.00 517.00 L 431.00 517.00 L 431.00 559.04 L 471.50 558.50 L 471.77 529.75 L 472.03 501.00 L 528.02 500.80 C558.81,500.69 585.69,500.58 587.75,500.55 L 591.50 500.50 L 591.77 529.75 L 592.03 559.00 L 638.00 559.00 L 638.00 530.22 L 634.30 529.53 C628.83,528.50 623.06,525.32 618.17,520.65 C611.74,514.50 609.73,509.94 609.20,500.29 C608.70,491.13 610.33,486.48 616.17,480.36 L 619.17 477.23 L 617.41 473.86 C616.30,471.74 615.65,468.28 615.65,464.50 C615.65,448.86 628.08,437.00 644.46,437.00 C656.27,437.00 664.54,442.32 669.34,453.00 C671.96,458.84 672.15,469.19 669.72,473.71 C668.00,476.91 668.00,476.93 671.09,480.44 C677.48,487.72 679.53,498.47 676.49,508.71 C673.77,517.88 662.85,527.11 652.66,528.84 L 648.50 529.55 L 648.22 544.25 L 647.95 558.95 L 664.22 559.23 L 680.50 559.50 L 681.59 569.00 ZM 395.00 668.50 L 394.50 684.50 L 389.75 684.80 L 385.00 685.11 L 385.00 637.00 L 392.25 637.00 L 399.50 637.01 L 405.00 652.50 C408.02,661.02 410.76,667.99 411.08,668.00 C411.41,668.00 414.11,661.03 417.08,652.51 L 422.50 637.02 L 429.75 637.01 L 437.00 637.00 L 437.00 685.11 L 432.25 684.80 L 427.50 684.50 L 426.50 651.50 L 422.09 664.00 C414.96,684.17 414.53,685.00 411.16,685.00 C409.56,685.00 407.72,684.37 407.09,683.61 C406.45,682.84 403.97,676.43 401.58,669.36 C399.18,662.29 396.83,655.60 396.36,654.50 C395.81,653.22 395.32,658.27 395.00,668.50 ZM 631.37 674.00 L 627.90 685.00 L 623.01 685.00 C620.32,685.00 617.89,684.62 617.60,684.17 C617.32,683.71 619.69,676.39 622.86,667.92 C626.04,659.44 629.89,649.01 631.42,644.75 L 634.20 637.00 L 640.85 637.01 L 647.50 637.03 L 655.23 659.26 C659.48,671.49 663.08,682.17 663.23,683.00 C663.44,684.15 662.28,684.57 658.32,684.80 L 653.13 685.10 L 649.63 674.00 ZM 458.67 674.50 L 455.34 684.50 L 450.17 684.80 C447.33,684.97 444.99,684.74 444.98,684.30 C444.97,683.86 448.63,673.04 453.11,660.25 L 461.27 637.00 L 467.88 637.02 L 474.50 637.03 L 482.77 660.27 C487.32,673.05 491.04,683.86 491.02,684.30 C491.01,684.74 488.64,684.97 485.75,684.80 L 480.50 684.50 L 476.50 673.96 L 467.58 674.23 ZM 281.79 674.75 L 281.50 684.50 L 276.96 684.80 C274.47,684.96 272.10,684.77 271.71,684.38 C271.32,683.99 271.00,673.17 271.00,660.33 L 271.00 637.00 L 281.92 637.00 L 282.21 646.25 L 282.50 655.50 L 301.00 656.08 L 301.00 637.00 L 312.04 637.00 L 311.50 684.50 L 301.50 684.50 L 301.21 674.75 L 300.93 665.00 L 282.07 665.00 ZM 549.00 669.26 L 549.00 685.00 L 544.67 685.00 C542.28,685.00 540.03,684.70 539.67,684.33 C539.30,683.97 539.00,673.17 539.00,660.33 L 539.00 637.00 L 551.25 637.00 C564.73,637.00 568.63,638.15 572.32,643.18 C575.38,647.35 575.59,654.61 572.82,659.98 C569.70,665.99 565.59,668.20 556.39,668.79 ZM 354.81 680.28 L 354.50 684.50 L 339.44 684.78 C331.16,684.93 324.07,684.74 323.69,684.36 C323.31,683.98 323.00,673.17 323.00,660.33 L 323.00 637.00 L 354.00 637.00 L 354.00 646.00 L 332.89 646.00 L 333.20 650.75 L 333.50 655.50 L 343.31 655.79 L 353.11 656.07 L 352.81 660.29 L 352.50 664.50 L 342.70 664.79 L 332.90 665.07 L 333.20 670.29 L 333.50 675.50 L 344.31 675.78 L 355.11 676.07 ZM 746.61 680.25 L 746.50 684.50 L 727.75 684.77 L 709.00 685.04 L 709.00 681.00 C709.00,677.40 710.25,675.30 720.45,661.73 L 731.89 646.50 L 721.07 646.22 L 710.24 645.94 L 709.62 642.84 C709.56,642.54 709.50,642.25 709.44,641.97 C709.10,640.34 708.87,639.24 709.28,638.51 C710.13,636.99 713.71,636.99 724.65,637.00 C725.55,637.00 726.50,637.00 727.50,637.00 L 746.00 637.00 L 746.00 639.43 C746.00,643.63 744.48,646.26 733.59,660.83 C727.77,668.63 723.00,675.23 723.00,675.51 C723.00,675.78 728.34,676.00 734.86,676.00 L 746.72 676.00 ZM 689.00 646.00 L 689.00 685.00 L 679.00 685.00 L 679.00 646.09 L 664.50 645.50 L 663.89 637.00 L 704.00 637.00 L 704.00 646.00 ZM 517.00 646.09 L 517.00 685.00 L 507.00 685.00 L 507.00 646.09 L 492.50 645.50 L 491.89 637.00 L 532.11 637.00 L 531.50 645.50 ZM 614.00 676.07 L 614.00 685.00 L 583.00 685.00 L 583.00 637.00 L 592.96 637.00 L 593.50 675.50 ZM 497.70 539.37 C498.08,539.75 503.15,539.94 508.95,539.78 L 519.50 539.50 L 520.06 516.00 L 497.00 516.00 L 497.00 527.33 C497.00,533.57 497.31,538.98 497.70,539.37 ZM 548.00 516.00 L 548.00 540.00 L 570.00 540.00 L 570.00 516.00 ZM 373.00 664.12 L 373.00 685.00 L 368.67 685.00 C366.28,685.00 364.03,684.70 363.67,684.33 C363.30,683.97 363.00,673.17 363.00,660.33 L 363.00 637.00 L 374.25 637.00 L 373.62 640.12 C373.28,641.84 373.00,652.64 373.00,664.12 ZM 549.67 659.33 C550.03,659.70 552.51,660.00 555.17,660.00 C561.01,660.00 564.00,657.58 564.00,652.83 C564.00,647.77 561.63,646.00 554.85,646.00 L 549.00 646.00 L 549.00 652.33 C549.00,655.82 549.30,658.97 549.67,659.33 ZM 415.80 488.25 L 415.50 493.50 L 410.96 493.80 C408.47,493.96 406.10,493.77 405.71,493.38 C405.32,492.99 405.00,490.49 405.00,487.83 L 405.00 483.00 L 416.10 483.00 ZM 430.80 488.25 L 430.50 493.50 L 425.96 493.80 C423.47,493.96 421.10,493.77 420.71,493.38 C420.32,492.99 420.00,490.49 420.00,487.83 L 420.00 483.00 L 431.10 483.00 ZM 415.80 473.25 L 415.50 478.50 L 410.96 478.80 C408.47,478.96 406.10,478.77 405.71,478.38 C405.32,477.99 405.00,475.49 405.00,472.83 L 405.00 468.00 L 416.10 468.00 ZM 430.80 473.25 L 430.50 478.50 L 425.96 478.80 C423.47,478.96 421.10,478.77 420.71,478.38 C420.32,477.99 420.00,475.49 420.00,472.83 L 420.00 468.00 L 431.10 468.00 ZM 462.64 662.25 C461.96,665.00 461.96,665.00 467.48,665.00 C471.22,665.00 473.00,664.60 473.00,663.75 C473.00,663.07 471.80,658.91 470.34,654.52 L 467.68 646.52 L 465.50 653.01 C464.30,656.58 463.02,660.74 462.64,662.25 ZM 635.00 664.20 C635.00,664.64 637.47,665.00 640.50,665.00 C644.36,665.00 646.00,664.61 646.00,663.69 C646.00,662.61 643.45,654.09 641.30,648.00 C640.86,646.74 635.00,661.80 635.00,664.20 Z" fill="rgb(6,2,1)"/>
<path d="M 756.76 334.96 L 756.50 382.92 L 515.00 383.21 C382.17,383.37 272.04,383.36 270.25,383.19 L 267.00 382.87 L 267.00 287.00 L 757.02 287.00 ZM 755.75 568.49 C755.25,568.66 725.56,568.81 681.59,568.94 L 680.50 559.50 L 664.22 559.23 L 647.95 558.95 L 648.22 544.25 L 648.50 529.55 L 652.66 528.84 C662.85,527.11 673.77,517.88 676.49,508.71 C679.53,498.47 677.48,487.72 671.09,480.44 C668.00,476.93 668.00,476.91 669.72,473.71 C669.76,473.63 669.80,473.55 669.84,473.46 C669.74,473.73 669.64,473.99 669.53,474.25 C668.83,475.90 671.27,476.00 712.89,476.00 L 757.00 476.00 L 757.00 522.03 C757.00,557.96 756.73,568.16 755.75,568.49 ZM 349.09 569.20 C328.11,569.15 312.83,569.09 306.00,569.00 L 267.50 568.50 L 267.24 522.25 L 266.98 476.00 L 365.65 476.00 C363.38,478.45 361.43,480.53 360.06,482.00 C352.24,490.34 352.15,490.51 354.80,491.01 L 357.50 491.52 L 357.76 525.22 L 358.03 558.91 L 343.50 559.50 L 343.18 563.36 C343.01,565.48 343.09,567.80 343.37,568.53 C343.48,568.81 345.05,569.03 349.09,569.20 ZM 617.25 473.53 C617.30,473.65 617.36,473.76 617.41,473.86 L 619.17 477.23 L 616.17 480.36 C610.33,486.48 608.70,491.13 609.20,500.29 C609.73,509.94 611.74,514.50 618.17,520.65 C623.06,525.32 628.83,528.50 634.30,529.53 L 638.00 530.22 L 638.00 559.00 L 592.03 559.00 L 591.77 529.75 L 591.50 500.50 L 587.75 500.55 C585.69,500.58 558.81,500.69 528.02,500.80 L 488.33 500.94 L 528.27 500.76 L 584.50 500.50 L 585.11 492.00 L 535.20 492.00 C589.48,492.00 600.09,491.78 599.82,490.64 C599.68,490.04 588.66,476.91 576.38,462.54 L 587.61 475.50 L 601.51 475.78 C616.32,476.08 618.31,475.97 617.25,473.53 ZM 638.05 569.02 L 654.39 569.01 C626.26,569.08 594.38,569.14 561.56,569.18 C596.19,569.09 624.93,569.03 638.05,569.02 ZM 546.44 428.08 C542.85,424.12 542.48,424.00 536.56,424.00 L 542.87 424.00 ZM 615.73 462.43 C615.68,463.11 615.65,463.80 615.65,464.50 C615.65,467.98 616.21,471.20 617.16,473.34 C617.07,473.16 616.97,472.97 616.86,472.76 C615.63,470.48 615.29,466.54 615.73,462.43 ZM 642.61 437.05 C639.39,437.23 636.33,437.87 633.52,438.92 C636.75,437.49 638.74,437.03 642.61,437.05 ZM 671.15 468.76 C671.65,465.15 671.47,460.76 670.63,457.02 C671.63,460.83 671.84,464.85 671.15,468.76 ZM 656.79 439.48 C654.74,438.53 652.51,437.85 650.10,437.45 C652.86,437.76 654.63,438.32 656.79,439.48 ZM 369.67 558.33 C369.73,558.40 370.02,558.46 370.51,558.52 L 369.50 558.50 L 369.49 556.90 C369.54,557.78 369.60,558.27 369.67,558.33 ZM 405.00 559.05 L 402.00 559.00 L 405.00 559.00 ZM 368.97 489.76 L 369.00 489.73 L 369.00 493.22 ZM 624.10 444.71 C623.40,445.37 622.74,446.06 622.11,446.78 C622.73,446.05 623.39,445.36 624.10,444.71 Z" fill="rgb(222,42,47)"/>
<path d="M 0.00 512.00 L 0.00 0.00 L 512.00 0.00 L 1024.00 0.00 L 1024.00 512.00 L 1024.00 1024.00 L 512.00 1024.00 L 0.00 1024.00 L 0.00 512.00 ZM 281.79 674.75 L 282.07 665.00 L 291.50 665.00 L 300.93 665.00 L 301.21 674.75 L 301.50 684.50 L 306.50 684.50 L 311.50 684.50 L 311.77 660.75 L 312.04 637.00 L 306.52 637.00 L 301.00 637.00 L 301.00 646.54 L 301.00 656.08 L 291.75 655.79 L 282.50 655.50 L 282.21 646.25 L 281.92 637.00 L 276.46 637.00 L 271.00 637.00 L 271.00 660.33 C271.00,673.17 271.32,683.99 271.71,684.38 C272.10,684.77 274.47,684.96 276.96,684.80 L 281.50 684.50 L 281.79 674.75 ZM 354.81 680.28 L 355.11 676.07 L 344.31 675.78 L 333.50 675.50 L 333.20 670.29 L 332.90 665.07 L 342.70 664.79 L 352.50 664.50 L 352.81 660.29 L 353.11 656.07 L 343.31 655.79 L 333.50 655.50 L 333.20 650.75 L 332.89 646.00 L 343.45 646.00 L 354.00 646.00 L 354.00 641.50 L 354.00 637.00 L 338.50 637.00 L 323.00 637.00 L 323.00 660.33 C323.00,673.17 323.31,683.98 323.69,684.36 C324.07,684.74 331.16,684.93 339.44,684.78 L 354.50 684.50 L 354.81 680.28 ZM 373.00 664.12 C373.00,652.64 373.28,641.84 373.62,640.12 L 374.25 637.00 L 368.62 637.00 L 363.00 637.00 L 363.00 660.33 C363.00,673.17 363.30,683.97 363.67,684.33 C364.03,684.70 366.28,685.00 368.67,685.00 L 373.00 685.00 L 373.00 664.12 ZM 395.00 668.50 C395.32,658.27 395.81,653.22 396.36,654.50 C396.83,655.60 399.18,662.29 401.58,669.36 C403.97,676.43 406.45,682.84 407.09,683.61 C407.72,684.37 409.56,685.00 411.16,685.00 C414.53,685.00 414.96,684.17 422.09,664.00 L 426.50 651.50 L 427.00 668.00 L 427.50 684.50 L 432.25 684.80 L 437.00 685.11 L 437.00 661.05 L 437.00 637.00 L 429.75 637.01 L 422.50 637.02 L 417.08 652.51 C414.11,661.03 411.41,668.00 411.08,668.00 C410.76,667.99 408.02,661.02 405.00,652.50 L 399.50 637.01 L 392.25 637.00 L 385.00 637.00 L 385.00 661.05 L 385.00 685.11 L 389.75 684.80 L 394.50 684.50 L 395.00 668.50 ZM 457.00 679.50 L 458.67 674.50 L 467.58 674.23 L 476.50 673.96 L 478.50 679.23 L 480.50 684.50 L 485.75 684.80 C488.64,684.97 491.01,684.74 491.02,684.30 C491.04,683.86 487.32,673.05 482.77,660.27 L 474.50 637.03 L 467.88 637.02 L 461.27 637.00 L 453.11 660.25 C448.63,673.04 444.97,683.86 444.98,684.30 C444.99,684.74 447.33,684.97 450.17,684.80 L 455.34 684.50 L 457.00 679.50 ZM 517.00 665.54 L 517.00 646.09 L 524.25 645.79 L 531.50 645.50 L 531.81 641.25 L 532.11 637.00 L 512.00 637.00 L 491.89 637.00 L 492.19 641.25 L 492.50 645.50 L 499.75 645.79 L 507.00 646.09 L 507.00 665.54 L 507.00 685.00 L 512.00 685.00 L 517.00 685.00 L 517.00 665.54 ZM 549.00 677.13 L 549.00 669.26 L 556.39 668.79 C565.59,668.20 569.70,665.99 572.82,659.98 C575.59,654.61 575.38,647.35 572.32,643.18 C568.63,638.15 564.73,637.00 551.25,637.00 L 539.00 637.00 L 539.00 660.33 C539.00,673.17 539.30,683.97 539.67,684.33 C540.03,684.70 542.28,685.00 544.67,685.00 L 549.00 685.00 L 549.00 677.13 ZM 614.00 680.53 L 614.00 676.07 L 603.75 675.78 L 593.50 675.50 L 593.23 656.25 L 592.96 637.00 L 587.98 637.00 L 583.00 637.00 L 583.00 661.00 L 583.00 685.00 L 598.50 685.00 L 614.00 685.00 L 614.00 680.53 ZM 629.63 679.50 L 631.37 674.00 L 640.50 674.00 L 649.63 674.00 L 651.38 679.55 L 653.13 685.10 L 658.32 684.80 C662.28,684.57 663.44,684.15 663.23,683.00 C663.08,682.17 659.48,671.49 655.23,659.26 L 647.50 637.03 L 640.85 637.01 L 634.20 637.00 L 631.42 644.75 C629.89,649.01 626.04,659.44 622.86,667.92 C619.69,676.39 617.32,683.71 617.60,684.17 C617.89,684.62 620.32,685.00 623.01,685.00 L 627.90 685.00 L 629.63 679.50 ZM 689.00 665.50 L 689.00 646.00 L 696.50 646.00 L 704.00 646.00 L 704.00 641.50 L 704.00 637.00 L 683.94 637.00 L 663.89 637.00 L 664.19 641.25 L 664.50 645.50 L 671.75 645.79 L 679.00 646.09 L 679.00 665.54 L 679.00 685.00 L 684.00 685.00 L 689.00 685.00 L 689.00 665.50 ZM 746.61 680.25 L 746.72 676.00 L 734.86 676.00 C728.34,676.00 723.00,675.78 723.00,675.51 C723.00,675.23 727.77,668.63 733.59,660.83 C744.48,646.26 746.00,643.63 746.00,639.43 L 746.00 637.00 L 727.50 637.00 C707.40,637.00 708.39,636.68 709.62,642.84 L 710.24 645.94 L 721.07 646.22 L 731.89 646.50 L 720.45 661.73 C710.25,675.30 709.00,677.40 709.00,681.00 L 709.00 685.04 L 727.75 684.77 L 746.50 684.50 L 746.61 680.25 ZM 755.75 568.49 C756.73,568.16 757.00,557.96 757.00,522.03 L 757.00 476.00 L 712.89 476.00 C671.27,476.00 668.83,475.90 669.53,474.25 C674.61,462.22 669.82,447.45 658.58,440.53 C654.44,437.98 652.43,437.44 645.89,437.15 C639.31,436.85 637.32,437.17 632.81,439.24 C625.34,442.67 621.53,446.22 618.36,452.69 C615.33,458.89 614.61,468.58 616.86,472.76 C618.58,475.94 617.74,476.11 601.51,475.78 L 587.61 475.50 L 570.71 456.00 C561.42,445.27 551.35,433.69 548.34,430.25 L 542.87 424.00 L 536.56 424.00 L 530.26 424.00 L 529.58 418.00 L 528.90 412.00 L 516.50 412.00 L 504.10 412.00 L 503.80 417.75 L 503.50 423.50 L 458.46 424.00 L 413.42 424.50 L 405.46 433.05 C391.47,448.07 373.62,467.44 369.75,471.79 L 366.01 476.00 L 316.49 476.00 L 266.98 476.00 L 267.24 522.25 L 267.50 568.50 L 306.00 569.00 C350.54,569.58 753.88,569.12 755.75,568.49 ZM 756.76 334.96 L 757.02 287.00 L 512.01 287.00 L 267.00 287.00 L 267.00 334.94 L 267.00 382.87 L 270.25 383.19 C272.04,383.36 382.17,383.37 515.00,383.21 L 756.50 382.92 L 756.76 334.96 ZM 462.64 662.25 C463.02,660.74 464.30,656.58 465.50,653.01 L 467.68 646.52 L 470.34 654.52 C471.80,658.91 473.00,663.07 473.00,663.75 C473.00,664.60 471.22,665.00 467.48,665.00 C461.96,665.00 461.96,665.00 462.64,662.25 ZM 549.67 659.33 C549.30,658.97 549.00,655.82 549.00,652.33 L 549.00 646.00 L 554.85 646.00 C561.63,646.00 564.00,647.77 564.00,652.83 C564.00,657.58 561.01,660.00 555.17,660.00 C552.51,660.00 550.03,659.70 549.67,659.33 ZM 635.00 664.20 C635.00,661.80 640.86,646.74 641.30,648.00 C643.45,654.09 646.00,662.61 646.00,663.69 C646.00,664.61 644.36,665.00 640.50,665.00 C637.47,665.00 635.00,664.64 635.00,664.20 ZM 369.67 558.33 C369.30,557.97 369.00,542.38 369.00,523.70 L 369.00 489.73 L 375.75 482.17 C379.46,478.01 388.58,468.05 396.00,460.04 C403.42,452.03 411.36,443.34 413.63,440.74 C415.90,438.13 417.98,436.00 418.26,436.00 C418.53,436.00 425.21,443.09 433.10,451.75 C440.99,460.41 447.68,467.73 447.97,468.00 C448.26,468.27 453.39,473.79 459.37,480.25 L 470.25 492.00 L 527.68 492.00 L 585.11 492.00 L 584.81 496.25 L 584.50 500.50 L 528.27 500.76 L 472.03 501.02 L 471.77 529.76 L 471.50 558.50 L 451.25 558.77 L 431.00 559.04 L 431.00 538.02 L 431.00 517.00 L 418.00 517.00 L 405.00 517.00 L 405.00 538.00 L 405.00 559.00 L 387.67 559.00 C378.13,559.00 370.03,558.70 369.67,558.33 ZM 415.80 488.25 L 416.10 483.00 L 410.55 483.00 L 405.00 483.00 L 405.00 487.83 C405.00,490.49 405.32,492.99 405.71,493.38 C406.10,493.77 408.47,493.96 410.96,493.80 L 415.50 493.50 L 415.80 488.25 ZM 430.80 488.25 L 431.10 483.00 L 425.55 483.00 L 420.00 483.00 L 420.00 487.83 C420.00,490.49 420.32,492.99 420.71,493.38 C421.10,493.77 423.47,493.96 425.96,493.80 L 430.50 493.50 L 430.80 488.25 ZM 415.80 473.25 L 416.10 468.00 L 410.55 468.00 L 405.00 468.00 L 405.00 472.83 C405.00,475.49 405.32,477.99 405.71,478.38 C406.10,478.77 408.47,478.96 410.96,478.80 L 415.50 478.50 L 415.80 473.25 ZM 430.80 473.25 L 431.10 468.00 L 425.55 468.00 L 420.00 468.00 L 420.00 472.83 C420.00,475.49 420.32,477.99 420.71,478.38 C421.10,478.77 423.47,478.96 425.96,478.80 L 430.50 478.50 L 430.80 473.25 ZM 497.70 539.37 C497.31,538.98 497.00,533.57 497.00,527.33 L 497.00 516.00 L 508.53 516.00 L 520.06 516.00 L 519.78 527.75 L 519.50 539.50 L 508.95 539.78 C503.15,539.94 498.08,539.75 497.70,539.37 ZM 548.00 528.00 L 548.00 516.00 L 559.00 516.00 L 570.00 516.00 L 570.00 528.00 L 570.00 540.00 L 559.00 540.00 L 548.00 540.00 L 548.00 528.00 Z" fill="rgb(254,254,254)"/>
</g>
</svg>
